<?xml version="1.0" encoding="UTF-8" standalone="no"?>
<svg
   xmlns:dc="http://purl.org/dc/elements/1.1/"
   xmlns:cc="http://creativecommons.org/ns#"
   xmlns:rdf="http://www.w3.org/1999/02/22-rdf-syntax-ns#"
   xmlns:svg="http://www.w3.org/2000/svg"
   xmlns="http://www.w3.org/2000/svg"
   height="237.7"
   width="237.7"
   xml:space="preserve"
   enable-background="new 0 0 1400 980"
   viewBox="0 0 237.7 237.69999"
   y="0px"
   x="0px"
   id="Layer_1"
   version="1.1"><metadata
   id="metadata125"><rdf:RDF><cc:Work
       rdf:about=""><dc:format>image/svg+xml</dc:format><dc:type
         rdf:resource="http://purl.org/dc/dcmitype/StillImage" /><dc:title></dc:title></cc:Work></rdf:RDF></metadata><defs
   id="defs123">
		
		
		
		
		
		
		
		
	
	
	
</defs>
<g
   id="g56"
   transform="translate(-1075.6,-163.3)">
			<polygon
   style="fill:#ffffff"
   id="polygon40"
   points="1313.3,233 1313.3,331.4 1243.7,401 1145.2,401 1075.6,331.4 1075.6,233 1145.2,163.3 1243.7,163.3 " />
			<polygon
   style="fill:#bcbcbc"
   id="polygon42"
   points="1145.2,163.3 1075.6,233 1194.4,282.2 " />
			<polygon
   style="fill:#a5a6a6"
   id="polygon44"
   points="1075.6,233 1075.6,331.4 1194.4,282.2 " />
			<polygon
   style="fill:#bcbcbc"
   id="polygon46"
   points="1075.6,331.4 1145.2,401 1194.4,282.2 " />
			<polygon
   style="fill:#d6d7d9"
   id="polygon48"
   points="1145.2,401 1243.7,401 1194.4,282.2 " />
			<polygon
   style="fill:#e5e5e5"
   id="polygon50"
   points="1243.7,401 1313.3,331.4 1194.4,282.2 " />
			<polygon
   style="fill:#efeff0"
   id="polygon52"
   points="1313.3,331.4 1313.3,233 1194.4,282.2 " />
			<polygon
   style="fill:#e5e5e5"
   id="polygon54"
   points="1243.7,163.3 1145.2,163.3 1194.4,282.2 " />
		</g>
</svg>