<?xml version="1.0" encoding="UTF-8" standalone="no"?>
<svg
   xmlns:dc="http://purl.org/dc/elements/1.1/"
   xmlns:cc="http://creativecommons.org/ns#"
   xmlns:rdf="http://www.w3.org/1999/02/22-rdf-syntax-ns#"
   xmlns:svg="http://www.w3.org/2000/svg"
   xmlns="http://www.w3.org/2000/svg"
   height="289"
   width="272.5"
   xml:space="preserve"
   enable-background="new 0 0 1400 980"
   viewBox="0 0 272.5 288.99999"
   y="0px"
   x="0px"
   id="Layer_1"
   version="1.1"><metadata
   id="metadata125"><rdf:RDF><cc:Work
       rdf:about=""><dc:format>image/svg+xml</dc:format><dc:type
         rdf:resource="http://purl.org/dc/dcmitype/StillImage" /><dc:title></dc:title></cc:Work></rdf:RDF></metadata><defs
   id="defs123">
		
		
		
		
		
		
		
		
	
	
	
</defs>
<g
   id="g88"
   transform="translate(-1058.2,-527.1)">
			<polygon
   style="fill:#e5e5e5"
   id="polygon72"
   points="1194.4,527.1 1243.7,694.7 1145.2,694.7 " />
			<polygon
   style="fill:#ffffff"
   id="polygon74"
   points="1319.9,725.4 1330.7,775.3 1254.5,816.1 1134.4,816.1 1058.2,775.3 1069,725.4 1145.2,694.7 1243.7,694.7 " />
			<polygon
   style="fill:#bcbcbc"
   id="polygon76"
   points="1194.4,527.1 1145.2,694.7 1069,725.4 " />
			<polygon
   style="fill:#a5a6a6"
   id="polygon78"
   points="1194.4,527.1 1069,725.4 1058.2,775.3 " />
			<polygon
   style="fill:#bcbcbc"
   id="polygon80"
   points="1194.4,527.1 1058.2,775.3 1134.4,816.1 " />
			<polygon
   style="fill:#d6d7d9"
   id="polygon82"
   points="1194.4,527.1 1134.4,816.1 1254.5,816.1 " />
			<polygon
   style="fill:#e5e5e5"
   id="polygon84"
   points="1194.4,527.1 1254.5,816.1 1330.7,775.3 " />
			<polygon
   style="fill:#ffffff"
   id="polygon86"
   points="1194.4,527.1 1330.7,775.3 1319.9,725.4 " />
		</g>
</svg>